<svg height='100px' width='100px'  fill="#000000" xmlns="http://www.w3.org/2000/svg" xmlns:xlink="http://www.w3.org/1999/xlink" version="1.1" x="0px" y="0px" viewBox="-56.691 66.614 708.662 708.662" enable-background="new -56.691 66.614 708.662 708.662" xml:space="preserve"><path d="M523.279,471.052c-24.532-5.471-49.163-10.527-73.729-15.844c-24.499-5.621-49.169-10.756-73.782-15.856  c-12.221-2.839-24.547-5.366-36.834-7.911c-4.766-1.153-18.146-6.018-27.462-7.633c17.866-2.978,57.94-13.666,63.393-14.924  c24.593-5.188,49.265-10.215,73.758-15.851c24.579-5.305,49.241-10.296,73.765-15.852c42.357-9.431,69.048-53.496,54.584-95.23  c-17.903-51.66-86.06-65.168-122.855-25.148c-17.004,18.511-33.699,37.312-50.587,55.93c-17.118,18.407-33.899,37.202-50.622,55.969  c-8.568,9.165-16.922,18.576-25.269,27.943c-3.382,3.551-14.284,12.706-20.342,19.966c6.354-16.962,17.135-57.009,18.771-62.361  c7.804-23.892,15.786-47.771,23.151-71.801c7.696-23.938,15.705-47.792,23.154-71.808c13.012-41.398-11.805-86.545-55.18-94.886  c-53.689-10.325-99.467,41.946-83.207,93.822c7.529,23.981,15.465,47.841,23.144,71.774c7.382,24.028,15.269,47.959,23.159,71.825  c3.652,12.002,7.627,23.943,11.565,35.854c1.384,4.705,3.861,18.725,7.12,27.601c-11.512-13.984-40.805-43.345-44.621-47.438  c-16.789-18.704-33.478-37.557-50.605-55.95c-16.883-18.635-33.537-37.497-50.61-55.957c-29.347-31.967-80.853-33.049-109.765,0.344  c-35.785,41.333-13.406,107.113,39.649,118.97c24.533,5.47,49.163,10.528,73.729,15.844c24.5,5.622,49.168,10.757,73.782,15.856  c12.221,2.838,24.548,5.367,36.833,7.911c4.766,1.154,18.146,6.019,27.462,7.634c-17.867,2.979-57.939,13.666-63.392,14.925  c-24.593,5.188-49.264,10.214-73.757,15.851c-24.579,5.304-49.242,10.296-73.765,15.852c-42.358,9.431-69.049,53.495-54.584,95.231  c17.902,51.657,86.059,65.166,122.855,25.146c17.004-18.511,33.698-37.313,50.586-55.929c17.118-18.407,33.899-37.203,50.623-55.97  c8.568-9.164,16.921-18.575,25.268-27.943c3.382-3.551,14.285-12.705,20.342-19.965c-6.355,16.963-17.135,57.01-18.771,62.361  c-7.804,23.891-15.786,47.77-23.151,71.801c-7.697,23.938-15.705,47.793-23.154,71.807c-13.012,41.399,11.803,86.546,55.181,94.887  c53.688,10.325,99.464-41.945,83.205-93.822c-7.528-23.98-15.464-47.84-23.143-71.773c-7.382-24.027-15.27-47.959-23.159-71.825  c-3.652-12.003-7.627-23.941-11.566-35.854c-1.384-4.704-3.861-18.725-7.12-27.6c11.512,13.984,40.806,43.346,44.622,47.438  c16.788,18.703,33.477,37.557,50.605,55.95c16.882,18.635,33.537,37.497,50.609,55.956c29.348,31.968,80.852,33.051,109.765-0.346  C598.714,548.689,576.334,482.911,523.279,471.052z"></path></svg>