<?xml version="1.0" encoding="utf-8"?>
<!-- Generator: Adobe Illustrator 24.1.0, SVG Export Plug-In . SVG Version: 6.00 Build 0)  -->
<svg version="1.1" xmlns="http://www.w3.org/2000/svg" xmlns:xlink="http://www.w3.org/1999/xlink" x="0px" y="0px"
	 viewBox="0 0 100 100" style="enable-background:new 0 0 100 100;" xml:space="preserve">
<style type="text/css">
	.st0{fill:none;stroke:#252525;stroke-miterlimit:10;}
	.st1{fill:#252525;}
</style>
<g id="Layer_2">
</g>
<g id="Layer_1">
	<g>
		<circle class="st0" cx="38.9" cy="31.1" r="5.08"/>
		<circle class="st0" cx="60.85" cy="31.1" r="5.08"/>
		<path class="st0" d="M67.2,38.81c-0.36-0.54-1-0.91-1.63-0.91h-9.34c-0.73,0-1.36,0.36-1.63,0.91l-4.72,7.71l-4.62-7.71
			c-0.36-0.54-1-0.91-1.63-0.91h-9.34c-0.73,0-1.36,0.36-1.63,0.91L26.3,49.24c-0.45,0.82-0.36,1.9,0.27,2.54
			c0.91,0.82,2.36,0.63,2.99-0.45l3.72-6.08v26.57c0,1.09,0.73,2.09,1.81,2.27c1.45,0.27,2.72-0.82,2.72-2.27V56.31h2.09v15.51
			c0,1.09,0.73,2.09,1.81,2.27c1.45,0.27,2.72-0.82,2.72-2.27V45.25l3.63,6.08c0.18,0.36,0.54,0.63,0.91,0.82
			c0.91,0.36,2,0,2.45-0.82l3.72-6.08v5.26l0,0l-3.81,7.44c-0.63,1.27,0.27,2.72,1.63,2.72h2.18v11.15c0,1.09,0.73,2.09,1.81,2.27
			c1.45,0.27,2.72-0.82,2.72-2.27V60.67h2.09v11.15c0,1.09,0.73,2.09,1.81,2.27c1.45,0.27,2.72-0.82,2.72-2.27V60.67h2.18
			c1.36,0,2.27-1.45,1.63-2.72l-3.81-7.44l0,0v-5.26l3.72,6.08c0.36,0.63,1,0.91,1.63,0.91c0.36,0,0.82-0.09,1.09-0.36
			c0.82-0.63,1-1.81,0.54-2.72L67.2,38.81z"/>
		<path class="st0" d="M92.77,55.95l-4.62-7.71c-0.27-0.45-0.73-0.73-1.27-0.73h-6.8c-0.54,0-1,0.27-1.27,0.73l-4.62,7.71
			c-0.45,0.63-0.18,1.54,0.45,2c0.27,0.18,0.45,0.18,0.73,0.18c0.45,0,1-0.27,1.27-0.73l2.72-4.44v19.5c0,0.91,0.73,1.63,1.63,1.63
			c0.91,0,1.63-0.73,1.63-1.63V61.12h1.54v11.43c0,0.91,0.73,1.63,1.63,1.63c0.91,0,1.63-0.73,1.63-1.63V52.96l2.72,4.44
			c0.45,0.63,1.27,0.91,2,0.45C92.95,57.49,93.13,56.59,92.77,55.95z"/>
		<circle class="st0" cx="83.43" cy="42.17" r="4.17"/>
		<circle class="st0" cx="16.32" cy="42.17" r="4.17"/>
		<path class="st0" d="M20.95,48.24c-0.27-0.45-0.73-0.73-1.27-0.73h-6.8c-0.54,0-1,0.27-1.27,0.73l-4.62,7.71
			c-0.45,0.63-0.18,1.54,0.45,2c0.27,0.18,0.45,0.18,0.73,0.18c0.45,0,1-0.27,1.27-0.73l2.72-4.44v3.9l0,0L9.07,62.3
			c-0.54,0.91,0.09,2.09,1.18,2.09h1.9v8.25c0,0.91,0.73,1.63,1.63,1.63c0.91,0,1.63-0.73,1.63-1.63v-8.25h1.54v8.25
			c0,0.91,0.73,1.63,1.63,1.63s1.63-0.73,1.63-1.63v-8.25h1.9c1.09,0,1.72-1.18,1.18-2.09l-3.08-5.44l0,0v-3.9l2.72,4.44
			c0.45,0.63,1.27,0.91,2,0.45c0.63-0.45,0.91-1.27,0.45-2L20.95,48.24z"/>
	</g>
	<g>
		
			<rect x="280.41" y="51.25" transform="matrix(-1 -4.477053e-11 4.477053e-11 -1 579.9966 128.1302)" class="st0" width="19.18" height="25.63"/>
		<polygon class="st0" points="315.79,50.2 315.79,76.88 264.21,76.88 264.21,50.2 276.6,37.81 290,24.41 303.4,37.81 		"/>
		<polygon class="st0" points="323.32,49.83 319.37,53.78 315.79,50.2 303.4,37.81 290,24.41 276.6,37.81 264.21,50.2 260.63,53.78 
			256.68,49.83 268.7,37.81 286.05,20.46 290,16.51 293.95,20.46 307,33.51 311.3,37.81 314.52,41.03 		"/>
	</g>
	<g>
		<path class="st1" d="M193.38,71.78V55.51c0-2.83-2.31-5.14-5.14-5.14h-1.8v-1.73c0-6.65-3.97-12.39-9.67-14.98v-2.18
			c0-1.89-1.53-3.42-3.42-3.42h-6.71c-1.89,0-3.42,1.53-3.42,3.42v2.17c-5.7,2.59-9.67,8.33-9.67,14.98v1.73h-1.79
			c-2.83,0-5.14,2.31-5.14,5.14v16.28c0,1.67,1.36,3.04,3.04,3.04h40.69C192.02,74.82,193.38,73.46,193.38,71.78z M164.39,31.48
			c0-1.24,1.01-2.25,2.25-2.25h6.71c1.24,0,2.25,1.01,2.25,2.25v1.69c-1.75-0.64-3.64-0.99-5.61-0.99c-1.97,0-3.86,0.35-5.61,0.99
			C164.39,33.17,164.39,31.48,164.39,31.48z M170,33.36c8.42,0,15.28,6.85,15.28,15.28v25.02h-30.55V48.63
			C154.72,40.21,161.57,33.36,170,33.36z M147.79,71.78V55.51c0-2.19,1.78-3.97,3.97-3.97h1.79v22.11h-3.9
			C148.63,73.65,147.79,72.81,147.79,71.78z M192.21,71.78c0,1.03-0.84,1.87-1.87,1.87h-3.9V51.54h1.8c2.19,0,3.97,1.78,3.97,3.97
			V71.78z"/>
		<path class="st1" d="M163.84,70.15h12.31c2.45,0,4.44-1.99,4.44-4.44V55.37c0-0.32-0.26-0.58-0.58-0.58h-20.03
			c-0.32,0-0.58,0.26-0.58,0.58v10.34C159.4,68.16,161.39,70.15,163.84,70.15z M179.43,55.95v3.92h-18.86v-3.92
			C160.57,55.95,179.43,55.95,179.43,55.95z M160.57,61.04h18.86v4.67c0,1.81-1.47,3.28-3.28,3.28h-12.31
			c-1.81,0-3.28-1.47-3.28-3.28C160.57,65.71,160.57,61.04,160.57,61.04z"/>
		<path class="st1" d="M161.98,46.18h2.13c0.32,0,0.58-0.26,0.58-0.58c0-0.32-0.26-0.58-0.58-0.58h-2.13
			c-0.32,0-0.58,0.26-0.58,0.58C161.4,45.92,161.66,46.18,161.98,46.18z"/>
		<path class="st1" d="M166.61,46.18h2.13c0.32,0,0.58-0.26,0.58-0.58c0-0.32-0.26-0.58-0.58-0.58h-2.13
			c-0.32,0-0.58,0.26-0.58,0.58C166.02,45.92,166.29,46.18,166.61,46.18z"/>
		<path class="st1" d="M171.24,46.18h2.13c0.32,0,0.58-0.26,0.58-0.58c0-0.32-0.26-0.58-0.58-0.58h-2.13
			c-0.32,0-0.58,0.26-0.58,0.58C170.65,45.92,170.91,46.18,171.24,46.18z"/>
		<path class="st1" d="M175.86,46.18H178c0.32,0,0.58-0.26,0.58-0.58c0-0.32-0.26-0.58-0.58-0.58h-2.13c-0.32,0-0.58,0.26-0.58,0.58
			C175.28,45.92,175.54,46.18,175.86,46.18z"/>
	</g>
	<circle class="st0" cx="295.71" cy="64.25" r="1.79"/>
	<polygon class="st0" points="314.52,24.41 314.52,41.03 311.3,37.81 307,33.51 307,24.41 	"/>
</g>
</svg>
