<?xml version="1.0" encoding="utf-8"?>
<!-- Generator: Adobe Illustrator 24.1.0, SVG Export Plug-In . SVG Version: 6.00 Build 0)  -->
<svg version="1.1" xmlns="http://www.w3.org/2000/svg" xmlns:xlink="http://www.w3.org/1999/xlink" x="0px" y="0px"
	 viewBox="0 0 100 100" style="enable-background:new 0 0 100 100;" xml:space="preserve">
<style type="text/css">
	.st0{fill:none;stroke:#252525;stroke-miterlimit:10;}
	.st1{fill:#252525;}
</style>
<g id="Layer_2">
</g>
<g id="Layer_1">
	<g>
		
			<rect x="40.41" y="51.25" transform="matrix(-1 -4.477053e-11 4.477053e-11 -1 99.9966 128.1302)" class="st0" width="19.18" height="25.63"/>
		<polygon class="st0" points="75.79,50.2 75.79,76.88 24.21,76.88 24.21,50.2 36.6,37.81 50,24.41 63.4,37.81 		"/>
		<polygon class="st0" points="83.32,49.83 79.37,53.78 75.79,50.2 63.4,37.81 50,24.41 36.6,37.81 24.21,50.2 20.63,53.78 
			16.68,49.83 28.7,37.81 46.05,20.46 50,16.51 53.95,20.46 67,33.51 71.3,37.81 74.52,41.03 		"/>
	</g>
	<circle class="st0" cx="55.71" cy="64.25" r="1.79"/>
	<polygon class="st0" points="74.52,24.41 74.52,41.03 71.3,37.81 67,33.51 67,24.41 	"/>
</g>
</svg>
