<?xml version="1.0" encoding="utf-8"?>
<!-- Generator: Adobe Illustrator 24.1.0, SVG Export Plug-In . SVG Version: 6.00 Build 0)  -->
<svg version="1.1" xmlns="http://www.w3.org/2000/svg" xmlns:xlink="http://www.w3.org/1999/xlink" x="0px" y="0px"
	 viewBox="0 0 100 100" style="enable-background:new 0 0 100 100;" xml:space="preserve">
<style type="text/css">
	.st0{fill:none;stroke:#252525;stroke-miterlimit:10;}
	.st1{fill:#252525;}
</style>
<g id="Layer_2">
</g>
<g id="Layer_1">
	<g>
		<path class="st1" d="M73.38,71.78V55.51c0-2.83-2.31-5.14-5.14-5.14h-1.8v-1.73c0-6.65-3.97-12.39-9.67-14.98v-2.18
			c0-1.89-1.53-3.42-3.42-3.42h-6.71c-1.89,0-3.42,1.53-3.42,3.42v2.17c-5.7,2.59-9.67,8.33-9.67,14.98v1.73h-1.79
			c-2.83,0-5.14,2.31-5.14,5.14v16.28c0,1.67,1.36,3.04,3.04,3.04h40.69C72.02,74.82,73.38,73.46,73.38,71.78z M44.39,31.48
			c0-1.24,1.01-2.25,2.25-2.25h6.71c1.24,0,2.25,1.01,2.25,2.25v1.69c-1.75-0.64-3.64-0.99-5.61-0.99c-1.97,0-3.86,0.35-5.61,0.99
			C44.39,33.17,44.39,31.48,44.39,31.48z M50,33.36c8.42,0,15.28,6.85,15.28,15.28v25.02H34.72V48.63
			C34.72,40.21,41.57,33.36,50,33.36z M27.79,71.78V55.51c0-2.19,1.78-3.97,3.97-3.97h1.79v22.11h-3.9
			C28.63,73.65,27.79,72.81,27.79,71.78z M72.21,71.78c0,1.03-0.84,1.87-1.87,1.87h-3.9V51.54h1.8c2.19,0,3.97,1.78,3.97,3.97V71.78
			z"/>
		<path class="st1" d="M43.84,70.15h12.31c2.45,0,4.44-1.99,4.44-4.44V55.37c0-0.32-0.26-0.58-0.58-0.58H39.98
			c-0.32,0-0.58,0.26-0.58,0.58v10.34C39.4,68.16,41.39,70.15,43.84,70.15z M59.43,55.95v3.92H40.57v-3.92
			C40.57,55.95,59.43,55.95,59.43,55.95z M40.57,61.04h18.86v4.67c0,1.81-1.47,3.28-3.28,3.28H43.84c-1.81,0-3.28-1.47-3.28-3.28
			C40.57,65.71,40.57,61.04,40.57,61.04z"/>
		<path class="st1" d="M41.98,46.18h2.13c0.32,0,0.58-0.26,0.58-0.58c0-0.32-0.26-0.58-0.58-0.58h-2.13c-0.32,0-0.58,0.26-0.58,0.58
			C41.4,45.92,41.66,46.18,41.98,46.18z"/>
		<path class="st1" d="M46.61,46.18h2.13c0.32,0,0.58-0.26,0.58-0.58c0-0.32-0.26-0.58-0.58-0.58h-2.13c-0.32,0-0.58,0.26-0.58,0.58
			C46.02,45.92,46.29,46.18,46.61,46.18z"/>
		<path class="st1" d="M51.24,46.18h2.13c0.32,0,0.58-0.26,0.58-0.58c0-0.32-0.26-0.58-0.58-0.58h-2.13c-0.32,0-0.58,0.26-0.58,0.58
			C50.65,45.92,50.91,46.18,51.24,46.18z"/>
		<path class="st1" d="M55.86,46.18H58c0.32,0,0.58-0.26,0.58-0.58c0-0.32-0.26-0.58-0.58-0.58h-2.13c-0.32,0-0.58,0.26-0.58,0.58
			C55.28,45.92,55.54,46.18,55.86,46.18z"/>
	</g>
</g>
</svg>
