<?xml version="1.0" encoding="utf-8"?>
<!-- Generator: Adobe Illustrator 24.1.0, SVG Export Plug-In . SVG Version: 6.00 Build 0)  -->
<svg version="1.1" id="Layer_1" xmlns="http://www.w3.org/2000/svg" xmlns:xlink="http://www.w3.org/1999/xlink" x="0px" y="0px"
	 viewBox="0 0 146.61 144.79" style="enable-background:new 0 0 146.61 144.79;" xml:space="preserve">
<style type="text/css">
	.st0{fill:none;}
	.st1{fill:none;stroke:#000000;stroke-miterlimit:10;}
	.st2{fill:none;stroke:#231F20;stroke-width:2;stroke-miterlimit:10;}
</style>
<rect x="-361.31" y="195.6" class="st0" width="130.12" height="120.44"/>
<text transform="matrix(1 0 0 1 -361.3073 206.5492)" style="font-family:'Marcellus-Regular'; font-size:15px;">the big one</text>
<circle class="st1" cx="-371.57" cy="200.96" r="5.82"/>
<circle class="st1" cx="-371.57" cy="201.01" r="3.65"/>
<circle class="st1" cx="-371.57" cy="200.99" r="1.69"/>
<circle class="st1" cx="-70.63" cy="90.84" r="43.32"/>
<circle class="st1" cx="-70.63" cy="91.19" r="33.57"/>
<circle class="st1" cx="-70.63" cy="91.02" r="19.68"/>
<rect x="-219.85" y="196.03" class="st0" width="130.12" height="120.44"/>
<text transform="matrix(1 0 0 1 -219.8474 203.3019)" style="font-family:'Inter-ExtraLight'; font-size:10px;">BC’s earthquake awareness </text>
<text transform="matrix(1 0 0 1 -219.8474 215.3019)" style="font-family:'Inter-ExtraLight'; font-size:10px;">and preparedness hub.</text>
<path d="M-230.11,207.72c-3.49,0-6.32-2.84-6.32-6.32s2.84-6.32,6.32-6.32s6.32,2.84,6.32,6.32S-226.62,207.72-230.11,207.72z
	 M-230.11,196.07c-2.94,0-5.32,2.39-5.32,5.32c0,2.94,2.39,5.32,5.32,5.32c2.94,0,5.32-2.39,5.32-5.32
	C-224.78,198.46-227.17,196.07-230.11,196.07z"/>
<path d="M-230.11,205.59c-2.29,0-4.15-1.86-4.15-4.15s1.86-4.15,4.15-4.15s4.15,1.86,4.15,4.15S-227.82,205.59-230.11,205.59z
	 M-230.11,198.29c-1.74,0-3.15,1.41-3.15,3.15s1.41,3.15,3.15,3.15s3.15-1.41,3.15-3.15S-228.37,198.29-230.11,198.29z"/>
<path d="M-230.11,203.6c-1.21,0-2.19-0.98-2.19-2.19s0.98-2.19,2.19-2.19s2.19,0.98,2.19,2.19S-228.9,203.6-230.11,203.6z
	 M-230.11,200.23c-0.65,0-1.19,0.53-1.19,1.19s0.53,1.19,1.19,1.19s1.19-0.53,1.19-1.19S-229.45,200.23-230.11,200.23z"/>
<g>
	<path d="M73.3,129.88c-31.26,0-56.69-25.44-56.69-56.69s25.44-56.7,56.69-56.7S130,41.92,130,73.19S104.55,129.88,73.3,129.88z
		 M73.3,25.44c-26.32,0-47.73,21.41-47.73,47.73S46.98,120.9,73.3,120.9s47.73-21.41,47.73-47.73S99.61,25.44,73.3,25.44z"/>
	<path d="M73.3,110.84c-20.54,0-37.24-16.71-37.24-37.25S52.77,36.36,73.3,36.36c20.54,0,37.24,16.71,37.24,37.24
		S93.82,110.84,73.3,110.84z M73.3,45.31c-15.6,0-28.28,12.68-28.28,28.28s12.68,28.28,28.28,28.28s28.28-12.68,28.28-28.28
		S88.88,45.31,73.3,45.31z"/>
	<path d="M73.3,92.99c-10.81,0-19.6-8.78-19.6-19.6s8.8-19.6,19.6-19.6c10.81,0,19.6,8.78,19.6,19.6S84.1,92.99,73.3,92.99z
		 M73.3,62.75c-5.86,0-10.64,4.77-10.64,10.64s4.77,10.64,10.64,10.64c5.86,0,10.64-4.77,10.64-10.64S79.15,62.75,73.3,62.75z"/>
</g>
<g>
	<circle class="st2" cx="317.32" cy="71.85" r="43.32"/>
	<circle class="st2" cx="317.32" cy="72.21" r="33.57"/>
	<circle class="st2" cx="317.32" cy="72.04" r="19.68"/>
	<circle class="st2" cx="317.68" cy="72.39" r="64.32"/>
</g>
</svg>
