<?xml version="1.0" encoding="utf-8"?>
<!-- Generator: Adobe Illustrator 24.1.0, SVG Export Plug-In . SVG Version: 6.00 Build 0)  -->
<svg version="1.1" id="Layer_1" xmlns="http://www.w3.org/2000/svg" xmlns:xlink="http://www.w3.org/1999/xlink" x="0px" y="0px"
	 viewBox="0 0 115.65 108.48" style="enable-background:new 0 0 115.65 108.48;" xml:space="preserve">
<style type="text/css">
	.st0{fill:none;stroke:#000000;stroke-miterlimit:10;}
</style>
<rect x="-97.2" y="159.29" style="fill:none;" width="130.12" height="120.44"/>
<text transform="matrix(1 0 0 1 -97.1977 170.2397)" style="font-family:'Marcellus-Regular'; font-size:15px;">the big one</text>
<circle class="st0" cx="-107.46" cy="164.65" r="5.82"/>
<circle class="st0" cx="-107.46" cy="164.7" r="3.65"/>
<circle class="st0" cx="-107.46" cy="164.68" r="1.69"/>
<rect x="44.26" y="159.72" style="fill:none;" width="130.12" height="120.44"/>
<text transform="matrix(1 0 0 1 44.2622 166.9924)"><tspan x="0" y="0" style="font-family:'Inter-ExtraLight'; font-size:10px;">BC’s earthquake awareness </tspan><tspan x="0" y="12" style="font-family:'Inter-ExtraLight'; font-size:10px;">and preparedness hub.</tspan></text>
<path d="M34,171.41c-3.49,0-6.32-2.84-6.32-6.32s2.84-6.32,6.32-6.32s6.32,2.84,6.32,6.32S37.49,171.41,34,171.41z M34,159.76
	c-2.94,0-5.32,2.39-5.32,5.32c0,2.94,2.39,5.32,5.32,5.32c2.94,0,5.32-2.39,5.32-5.32C39.33,162.15,36.94,159.76,34,159.76z"/>
<path d="M34,169.28c-2.29,0-4.15-1.86-4.15-4.15s1.86-4.15,4.15-4.15s4.15,1.86,4.15,4.15S36.29,169.28,34,169.28z M34,161.98
	c-1.74,0-3.15,1.41-3.15,3.15s1.41,3.15,3.15,3.15s3.15-1.41,3.15-3.15S35.74,161.98,34,161.98z"/>
<path d="M34,167.29c-1.21,0-2.19-0.98-2.19-2.19s0.98-2.19,2.19-2.19s2.19,0.98,2.19,2.19S35.21,167.29,34,167.29z M34,163.92
	c-0.65,0-1.19,0.53-1.19,1.19s0.53,1.19,1.19,1.19s1.19-0.53,1.19-1.19S34.66,163.92,34,163.92z"/>
<g>
	<path d="M57.82,93.36c-21.57,0-39.11-17.55-39.11-39.11s17.55-39.12,39.11-39.12s39.12,17.55,39.12,39.12S79.39,93.36,57.82,93.36z
		 M57.82,21.31c-18.16,0-32.93,14.77-32.93,32.93c0,18.16,14.77,32.93,32.93,32.93c18.16,0,32.93-14.77,32.93-32.93
		C90.76,36.08,75.98,21.31,57.82,21.31z"/>
	<path d="M57.82,80.23c-14.17,0-25.69-11.53-25.69-25.7s11.53-25.69,25.69-25.69s25.69,11.53,25.69,25.69S71.99,80.23,57.82,80.23z
		 M57.82,35.02c-10.76,0-19.51,8.75-19.51,19.51s8.75,19.51,19.51,19.51s19.51-8.75,19.51-19.51S68.58,35.02,57.82,35.02z"/>
	<path d="M57.82,67.91c-7.46,0-13.52-6.06-13.52-13.52s6.06-13.52,13.52-13.52s13.52,6.06,13.52,13.52S65.28,67.91,57.82,67.91z
		 M57.82,47.05c-4.04,0-7.34,3.29-7.34,7.34s3.29,7.34,7.34,7.34s7.34-3.29,7.34-7.34S61.87,47.05,57.82,47.05z"/>
</g>
</svg>
