<?xml version="1.0" encoding="utf-8"?>
<!-- Generator: Adobe Illustrator 24.1.0, SVG Export Plug-In . SVG Version: 6.00 Build 0)  -->
<svg version="1.1" xmlns="http://www.w3.org/2000/svg" xmlns:xlink="http://www.w3.org/1999/xlink" x="0px" y="0px"
	 viewBox="0 0 100 100" style="enable-background:new 0 0 100 100;" xml:space="preserve">
<style type="text/css">
	.st0{fill:none;stroke:#252525;stroke-miterlimit:10;}
	.st1{fill:#252525;}
</style>
<g id="Layer_2">
</g>
<g id="Layer_1">
	<g transform="translate(0,-952.36218)">
		<path class="st1" d="M25.77,977.54c-0.43,0.03-0.68,0.66-0.38,0.97l15.26,16.34h-6.77c-0.32,0-0.58,0.25-0.58,0.57
			c0,0.32,0.25,0.58,0.57,0.58c0.01,0,0.01,0,0.02,0h8.07c0.32,0,0.58-0.26,0.58-0.58v-8.07c0.01-0.32-0.24-0.59-0.55-0.6
			c-0.03,0-0.06,0-0.09,0c-0.3,0.04-0.52,0.3-0.5,0.59v6.61l-15.15-16.23C26.11,977.61,25.94,977.54,25.77,977.54z M74.19,977.54
			c-0.15,0.02-0.28,0.09-0.38,0.2l-15.15,16.23v-6.61c0.01-0.32-0.24-0.59-0.55-0.6c-0.03,0-0.06,0-0.09,0
			c-0.3,0.04-0.52,0.3-0.5,0.59v8.07c0,0.32,0.26,0.58,0.58,0.58h8.07c0.32,0,0.58-0.25,0.58-0.57c0-0.32-0.25-0.58-0.57-0.58
			c-0.01,0-0.01,0-0.02,0h-6.77l15.26-16.34C74.96,978.18,74.65,977.52,74.19,977.54z M50.02,994.85c-4.13,0-7.49,3.36-7.49,7.49
			c0,4.13,3.36,7.49,7.49,7.49s7.49-3.36,7.49-7.49C57.51,998.21,54.15,994.85,50.02,994.85z M50.02,996c3.51,0,6.34,2.83,6.34,6.34
			c0,3.51-2.83,6.34-6.34,6.34c-3.51,0-6.34-2.83-6.34-6.34C43.68,998.84,46.51,996,50.02,996z M33.77,1008.69
			c-0.32,0.03-0.55,0.31-0.52,0.63c0.03,0.32,0.31,0.55,0.63,0.52l0,0h6.75l-15.24,16.32c-0.27,0.2-0.3,0.65-0.05,0.88
			s0.7,0.18,0.88-0.11l15.15-16.23v6.63c0,0.32,0.25,0.58,0.57,0.58c0.32,0,0.58-0.25,0.58-0.57c0-0.01,0-0.01,0-0.02v-8.07
			c0-0.32-0.26-0.58-0.58-0.58h-8.07C33.84,1008.68,33.81,1008.68,33.77,1008.69z M57.98,1008.69c-0.28,0.05-0.47,0.3-0.47,0.58
			v8.07c0,0.32,0.25,0.58,0.57,0.58c0.32,0,0.58-0.25,0.58-0.57c0-0.01,0-0.01,0-0.02v-6.61l15.15,16.23
			c0.2,0.25,0.61,0.29,0.85,0.07c0.23-0.22,0.23-0.66-0.02-0.86l-15.24-16.32h6.75c0.32,0,0.58-0.25,0.58-0.57
			c0-0.32-0.25-0.58-0.57-0.58c-0.01,0-0.01,0-0.02,0h-8.07c-0.02,0-0.04,0-0.05,0C58.01,1008.68,58,1008.68,57.98,1008.69z"/>
	</g>
</g>
</svg>
